<svg width="46" height="45" viewBox="0 0 46 45" fill="none" xmlns="http://www.w3.org/2000/svg">
<g clip-path="url(#clip0_29_2171)">
<path d="M41.292 42.0314H39.5559V2.44808C39.5559 1.29747 38.6232 0.364746 37.4726 0.364746H8.30593C7.15533 0.364746 6.2226 1.29747 6.2226 2.44808V42.0314H4.48649C3.91123 42.0314 3.44482 42.4978 3.44482 43.0731V44.8092H42.3337V43.0731C42.3337 42.4978 41.8673 42.0314 41.292 42.0314ZM14.5559 6.96197C14.5559 6.38671 15.0223 5.9203 15.5976 5.9203H19.0698C19.6451 5.9203 20.1115 6.38671 20.1115 6.96197V10.4342C20.1115 11.0095 19.6451 11.4759 19.0698 11.4759H15.5976C15.0223 11.4759 14.5559 11.0095 14.5559 10.4342V6.96197ZM14.5559 15.2953C14.5559 14.72 15.0223 14.2536 15.5976 14.2536H19.0698C19.6451 14.2536 20.1115 14.72 20.1115 15.2953V18.7675C20.1115 19.3428 19.6451 19.8092 19.0698 19.8092H15.5976C15.0223 19.8092 14.5559 19.3428 14.5559 18.7675V15.2953ZM19.0698 28.1425H15.5976C15.0223 28.1425 14.5559 27.6761 14.5559 27.1009V23.6286C14.5559 23.0534 15.0223 22.587 15.5976 22.587H19.0698C19.6451 22.587 20.1115 23.0534 20.1115 23.6286V27.1009C20.1115 27.6761 19.6451 28.1425 19.0698 28.1425ZM25.667 42.0314H20.1115V34.7397C20.1115 34.1645 20.5779 33.6981 21.1532 33.6981H24.6254C25.2006 33.6981 25.667 34.1645 25.667 34.7397V42.0314ZM31.2226 27.1009C31.2226 27.6761 30.7562 28.1425 30.1809 28.1425H26.7087C26.1334 28.1425 25.667 27.6761 25.667 27.1009V23.6286C25.667 23.0534 26.1334 22.587 26.7087 22.587H30.1809C30.7562 22.587 31.2226 23.0534 31.2226 23.6286V27.1009ZM31.2226 18.7675C31.2226 19.3428 30.7562 19.8092 30.1809 19.8092H26.7087C26.1334 19.8092 25.667 19.3428 25.667 18.7675V15.2953C25.667 14.72 26.1334 14.2536 26.7087 14.2536H30.1809C30.7562 14.2536 31.2226 14.72 31.2226 15.2953V18.7675ZM31.2226 10.4342C31.2226 11.0095 30.7562 11.4759 30.1809 11.4759H26.7087C26.1334 11.4759 25.667 11.0095 25.667 10.4342V6.96197C25.667 6.38671 26.1334 5.9203 26.7087 5.9203H30.1809C30.7562 5.9203 31.2226 6.38671 31.2226 6.96197V10.4342Z" fill="#59A3CC"/>
</g>
<defs>
<clipPath id="clip0_29_2171">
<rect width="44.4444" height="44.4444" fill="white" transform="translate(0.666992 0.364746)"/>
</clipPath>
</defs>
</svg>
