<svg width="90" height="68" viewBox="0 0 90 68" fill="none" xmlns="http://www.w3.org/2000/svg">
<g clip-path="url(#clip0_29_2217)">
<path d="M86.6668 56.4525H11.6668V3.67475C11.6668 2.14003 10.4237 0.896973 8.889 0.896973H3.33344C1.79872 0.896973 0.555664 2.14003 0.555664 3.67475V62.0081C0.555664 65.0758 3.04351 67.5636 6.11122 67.5636H86.6668C88.2015 67.5636 89.4445 66.3206 89.4445 64.7859V59.2303C89.4445 57.6956 88.2015 56.4525 86.6668 56.4525ZM81.1112 6.45253H60.6147C56.9029 6.45253 55.0435 10.9404 57.6685 13.5654L63.2935 19.1904L50.5557 31.93L37.8178 19.1921C35.6477 17.022 32.1303 17.022 29.9619 19.1921L18.0366 31.1175C16.9515 32.2025 16.9515 33.9612 18.0366 35.0463L21.9636 38.9734C23.0487 40.0584 24.8074 40.0584 25.8925 38.9734L33.889 30.9751L46.6268 43.7129C48.797 45.8831 52.3143 45.8831 54.4827 43.7129L71.1494 27.0463L76.7744 32.6713C79.3994 35.2963 83.8873 33.4369 83.8873 29.7251V9.23031C83.889 7.69558 82.6459 6.45253 81.1112 6.45253Z" fill="#59A3CC"/>
</g>
<defs>
<clipPath id="clip0_29_2217">
<rect width="88.8889" height="66.6667" fill="white" transform="translate(0.555664 0.896973)"/>
</clipPath>
</defs>
</svg>
