<svg width="46" height="45" viewBox="0 0 46 45" fill="none" xmlns="http://www.w3.org/2000/svg">
<g clip-path="url(#clip0_29_2263)">
<path d="M38.6201 15.0108L30.7937 7.16791C30.2764 6.64932 29.5743 6.35737 28.8418 6.35623C28.1093 6.35509 27.4063 6.64486 26.8874 7.16184L26.8813 7.16791L20.3336 13.7235V37.2582L38.6201 18.9335C39.1393 18.4128 39.4308 17.7075 39.4308 16.9722C39.4308 16.2368 39.1393 15.5315 38.6201 15.0108ZM42.5558 28.2304H33.2754L17.094 44.4205C16.9152 44.6002 16.7034 44.7313 16.5142 44.8971H42.5558C43.2925 44.8971 43.9991 44.6044 44.52 44.0835C45.0409 43.5626 45.3336 42.856 45.3336 42.1193V31.0082C45.3336 30.2715 45.0409 29.5649 44.52 29.044C43.9991 28.5231 43.2925 28.2304 42.5558 28.2304ZM17.5558 3.23041C17.5558 2.4937 17.2632 1.78716 16.7422 1.26623C16.2213 0.745295 15.5148 0.452637 14.778 0.452637L3.66694 0.452637C2.93023 0.452637 2.22369 0.745295 1.70275 1.26623C1.18182 1.78716 0.88916 2.4937 0.88916 3.23041L0.88916 36.5637C0.88916 38.7739 1.76713 40.8935 3.32994 42.4563C4.89274 44.0191 7.01236 44.8971 9.22249 44.8971C11.4326 44.8971 13.5522 44.0191 15.115 42.4563C16.6779 40.8935 17.5558 38.7739 17.5558 36.5637V3.23041ZM9.22249 38.6471C8.81045 38.6471 8.40766 38.5249 8.06506 38.296C7.72245 38.0671 7.45543 37.7417 7.29774 37.361C7.14006 36.9803 7.0988 36.5614 7.17919 36.1573C7.25958 35.7532 7.45799 35.382 7.74935 35.0906C8.04071 34.7992 8.41193 34.6008 8.81606 34.5204C9.22018 34.4401 9.63907 34.4813 10.0198 34.639C10.4004 34.7967 10.7258 35.0637 10.9547 35.4063C11.1836 35.7489 11.3058 36.1517 11.3058 36.5637C11.3058 37.1163 11.0863 37.6462 10.6956 38.0369C10.3049 38.4276 9.77503 38.6471 9.22249 38.6471ZM12.0003 22.6749H6.44472V17.1193H12.0003V22.6749ZM12.0003 11.5637H6.44472V6.00819H12.0003V11.5637Z" fill="#59A3CC"/>
</g>
<defs>
<clipPath id="clip0_29_2263">
<rect width="44.4444" height="44.4444" fill="white" transform="translate(0.88916 0.452637)"/>
</clipPath>
</defs>
</svg>
