<svg width="19" height="18" viewBox="0 0 19 18" fill="none" xmlns="http://www.w3.org/2000/svg">
<path d="M11.7515 6.06681L7.93816 9.88903L6.47149 8.42236C6.39181 8.32929 6.29375 8.25374 6.18346 8.20041C6.07319 8.14707 5.95307 8.11703 5.83066 8.11232C5.70824 8.10761 5.58617 8.12823 5.4721 8.17294C5.35803 8.21756 5.25443 8.28538 5.1678 8.37196C5.08118 8.45863 5.01339 8.56227 4.96871 8.67632C4.92402 8.79036 4.90339 8.91241 4.90812 9.03489C4.91285 9.15729 4.94283 9.27738 4.99618 9.38769C5.04954 9.49792 5.12511 9.59605 5.21816 9.67569L7.30705 11.7735C7.3901 11.8559 7.48861 11.921 7.59691 11.9653C7.70518 12.0095 7.82118 12.032 7.93816 12.0313C8.17131 12.0303 8.39478 11.9377 8.56038 11.7735L13.0048 7.32903C13.0881 7.24636 13.1542 7.14805 13.1994 7.03977C13.2446 6.93145 13.2678 6.81526 13.2678 6.69792C13.2678 6.58057 13.2446 6.46439 13.1994 6.35607C13.1542 6.24775 13.0881 6.14944 13.0048 6.06681C12.8382 5.90125 12.613 5.80833 12.3782 5.80833C12.1433 5.80833 11.9181 5.90125 11.7515 6.06681ZM9.33371 0.03125C7.57567 0.03125 5.85708 0.552575 4.39531 1.52929C2.93355 2.50602 1.79424 3.89427 1.12146 5.51851C0.448674 7.14272 0.272647 8.93001 0.615625 10.6543C0.958603 12.3785 1.80519 13.9624 3.04833 15.2056C4.29146 16.4487 5.8753 17.2952 7.59958 17.6383C9.32385 17.9812 11.1111 17.8052 12.7353 17.1324C14.3596 16.4596 15.7478 15.3203 16.7246 13.8585C17.7013 12.3968 18.2226 10.6782 18.2226 8.92014C18.2226 7.75285 17.9926 6.59696 17.546 5.51851C17.0993 4.44006 16.4446 3.46016 15.6191 2.63474C14.7937 1.80934 13.8138 1.15458 12.7353 0.707872C11.6569 0.26117 10.501 0.03125 9.33371 0.03125ZM9.33371 16.0313C7.92731 16.0313 6.55242 15.6142 5.38299 14.8329C4.21358 14.0514 3.30213 12.9408 2.76391 11.6415C2.22569 10.3421 2.08486 8.91223 2.35924 7.53285C2.63362 6.15341 3.3109 4.88633 4.3054 3.89183C5.29991 2.89732 6.56698 2.22005 7.94642 1.94567C9.3258 1.67129 10.7557 1.8121 12.055 2.35033C13.3544 2.88856 14.465 3.8 15.2464 4.96942C16.0278 6.13883 16.4448 7.51365 16.4448 8.92014C16.4448 10.8061 15.6957 12.6149 14.3621 13.9485C13.0285 15.282 11.2197 16.0313 9.33371 16.0313Z" fill="#1A1B1F"/>
</svg>
