<svg width="19" height="19" viewBox="0 0 19 19" fill="none" xmlns="http://www.w3.org/2000/svg">
<path d="M11.751 6.95499L7.93767 10.7772L6.471 9.31054C6.39132 9.21748 6.29326 9.14192 6.18298 9.08859C6.0727 9.03526 5.95259 9.00521 5.83017 9.0005C5.70775 8.99579 5.58568 9.01641 5.47161 9.06112C5.35755 9.10574 5.25395 9.17357 5.16731 9.26014C5.08069 9.34681 5.01291 9.45046 4.96822 9.5645C4.92353 9.67855 4.90291 9.80059 4.90763 9.92308C4.91236 10.0455 4.94235 10.1656 4.9957 10.2759C5.04905 10.3861 5.12462 10.4842 5.21767 10.5639L7.30656 12.6617C7.38962 12.7441 7.48812 12.8092 7.59642 12.8535C7.70469 12.8977 7.82069 12.9201 7.93767 12.9194C8.17083 12.9185 8.39429 12.8258 8.55989 12.6617L13.0043 8.21721C13.0876 8.13454 13.1538 8.03623 13.1989 7.92795C13.2441 7.81963 13.2673 7.70344 13.2673 7.5861C13.2673 7.46876 13.2441 7.35257 13.1989 7.24425C13.1538 7.13593 13.0876 7.03762 13.0043 6.95499C12.8378 6.78943 12.6125 6.69651 12.3777 6.69651C12.1428 6.69651 11.9176 6.78943 11.751 6.95499ZM9.33323 0.919434C7.57518 0.919434 5.85659 1.44076 4.39483 2.41748C2.93306 3.39421 1.79375 4.78246 1.12097 6.4067C0.448185 8.0309 0.272159 9.81819 0.615137 11.5425C0.958115 13.2667 1.8047 14.8505 3.04784 16.0937C4.29097 17.3369 5.87482 18.1834 7.59909 18.5265C9.32336 18.8694 11.1106 18.6934 12.7348 18.0206C14.3591 17.3478 15.7474 16.2085 16.7241 14.7467C17.7008 13.2849 18.2221 11.5664 18.2221 9.80832C18.2221 8.64103 17.9922 7.48514 17.5455 6.4067C17.0988 5.32824 16.4441 4.34834 15.6186 3.52293C14.7932 2.69752 13.8133 2.04277 12.7348 1.59606C11.6564 1.14935 10.5005 0.919434 9.33323 0.919434ZM9.33323 16.9194C7.92683 16.9194 6.55193 16.5024 5.38251 15.721C4.21309 14.9396 3.30164 13.829 2.76342 12.5297C2.2252 11.2303 2.08437 9.80041 2.35875 8.42103C2.63314 7.04159 3.31041 5.77452 4.30491 4.78001C5.29942 3.7855 6.5665 3.10823 7.94594 2.83385C9.32531 2.55947 10.7552 2.70029 12.0546 3.23851C13.3539 3.77674 14.4645 4.68818 15.2459 5.8576C16.0273 7.02702 16.4443 8.40183 16.4443 9.80832C16.4443 11.6943 15.6952 13.5031 14.3616 14.8367C13.028 16.1702 11.2192 16.9194 9.33323 16.9194Z" fill="#1A1B1F"/>
</svg>
