<svg width="19" height="19" viewBox="0 0 19 19" fill="none" xmlns="http://www.w3.org/2000/svg">
<path d="M11.7515 6.95548L7.93816 10.7777L6.47149 9.31103C6.39181 9.21797 6.29375 9.14241 6.18346 9.08908C6.07319 9.03574 5.95307 9.0057 5.83066 9.00099C5.70824 8.99628 5.58617 9.0169 5.4721 9.06161C5.35803 9.10623 5.25443 9.17406 5.1678 9.26063C5.08118 9.3473 5.01339 9.45094 4.96871 9.56499C4.92402 9.67903 4.90339 9.80108 4.90812 9.92357C4.91285 10.046 4.94283 10.1661 4.99618 10.2764C5.04954 10.3866 5.12511 10.4847 5.21816 10.5644L7.30705 12.6621C7.3901 12.7445 7.48861 12.8097 7.59691 12.854C7.70518 12.8981 7.82118 12.9206 7.93816 12.9199C8.17131 12.9189 8.39478 12.8263 8.56038 12.6621L13.0048 8.2177C13.0881 8.13503 13.1542 8.03672 13.1994 7.92844C13.2446 7.82012 13.2678 7.70393 13.2678 7.58659C13.2678 7.46925 13.2446 7.35306 13.1994 7.24474C13.1542 7.13642 13.0881 7.03811 13.0048 6.95548C12.8382 6.78992 12.613 6.697 12.3782 6.697C12.1433 6.697 11.9181 6.78992 11.7515 6.95548ZM9.33371 0.919922C7.57567 0.919922 5.85708 1.44125 4.39531 2.41797C2.93355 3.3947 1.79424 4.78294 1.12146 6.40718C0.448674 8.03139 0.272647 9.81868 0.615625 11.5429C0.958603 13.2672 1.80519 14.851 3.04833 16.0942C4.29146 17.3373 5.8753 18.1839 7.59958 18.5269C9.32385 18.8699 11.1111 18.6939 12.7353 18.0211C14.3596 17.3483 15.7478 16.209 16.7246 14.7472C17.7013 13.2854 18.2226 11.5669 18.2226 9.80881C18.2226 8.64152 17.9926 7.48563 17.546 6.40718C17.0993 5.32873 16.4446 4.34883 15.6191 3.52342C14.7937 2.69801 13.8138 2.04326 12.7353 1.59654C11.6569 1.14984 10.501 0.919922 9.33371 0.919922ZM9.33371 16.9199C7.92731 16.9199 6.55242 16.5029 5.38299 15.7215C4.21358 14.9401 3.30213 13.8295 2.76391 12.5301C2.22569 11.2308 2.08486 9.8009 2.35924 8.42152C2.63362 7.04208 3.3109 5.77501 4.3054 4.7805C5.29991 3.78599 6.56698 3.10872 7.94642 2.83434C9.3258 2.55996 10.7557 2.70078 12.055 3.239C13.3544 3.77723 14.465 4.68867 15.2464 5.85809C16.0278 7.0275 16.4448 8.40232 16.4448 9.80881C16.4448 11.6948 15.6957 13.5036 14.3621 14.8372C13.0285 16.1707 11.2197 16.9199 9.33371 16.9199Z" fill="#1A1B1F"/>
</svg>
