<svg width="19" height="19" viewBox="0 0 19 19" fill="none" xmlns="http://www.w3.org/2000/svg">
<path d="M11.9737 6.39933L8.16033 10.2215L6.69366 8.75488C6.61398 8.66181 6.51592 8.58626 6.40563 8.53293C6.29536 8.47959 6.17524 8.44955 6.05282 8.44484C5.93041 8.44013 5.80834 8.46075 5.69426 8.50546C5.5802 8.55008 5.4766 8.6179 5.38997 8.70448C5.30335 8.79115 5.23556 8.89479 5.19088 9.00884C5.14618 9.12288 5.12556 9.24493 5.13029 9.36741C5.13502 9.48981 5.165 9.6099 5.21835 9.72021C5.2717 9.83044 5.34728 9.92857 5.44033 10.0082L7.52922 12.106C7.61227 12.1884 7.71078 12.2535 7.81908 12.2978C7.92735 12.342 8.04335 12.3645 8.16033 12.3638C8.39348 12.3628 8.61695 12.2702 8.78255 12.106L13.227 7.66155C13.3103 7.57888 13.3764 7.48057 13.4216 7.37228C13.4667 7.26396 13.4899 7.14778 13.4899 7.03044C13.4899 6.91309 13.4667 6.79691 13.4216 6.68859C13.3764 6.58027 13.3103 6.48196 13.227 6.39933C13.0604 6.23377 12.8352 6.14085 12.6003 6.14085C12.3655 6.14085 12.1402 6.23377 11.9737 6.39933ZM9.55588 0.36377C7.79784 0.36377 6.07925 0.885094 4.61748 1.86181C3.15571 2.83854 2.01641 4.22679 1.34362 5.85103C0.670842 7.47524 0.494815 9.26253 0.837793 10.9868C1.18077 12.7111 2.02736 14.2949 3.27049 15.5381C4.51362 16.7812 6.09747 17.6278 7.82175 17.9708C9.54601 18.3137 11.3333 18.1377 12.9575 17.4649C14.5817 16.7921 15.97 15.6528 16.9467 14.1911C17.9234 12.7293 18.4448 11.0107 18.4448 9.25266C18.4448 8.08537 18.2148 6.92948 17.7681 5.85103C17.3215 4.77258 16.6667 3.79268 15.8413 2.96726C15.0159 2.14186 14.036 1.4871 12.9575 1.04039C11.8791 0.593689 10.7232 0.36377 9.55588 0.36377ZM9.55588 16.3638C8.14948 16.3638 6.77458 15.9467 5.60516 15.1654C4.43575 14.3839 3.5243 13.2734 2.98608 11.974C2.44786 10.6746 2.30703 9.24475 2.58141 7.86537C2.85579 6.48593 3.53306 5.21885 4.52757 4.22435C5.52208 3.22984 6.78915 2.55257 8.16859 2.27819C9.54797 2.00381 10.9778 2.14462 12.2772 2.68285C13.5766 3.22108 14.6872 4.13252 15.4686 5.30194C16.2499 6.47135 16.667 7.84617 16.667 9.25266C16.667 11.1386 15.9178 12.9474 14.5842 14.281C13.2506 15.6145 11.4418 16.3638 9.55588 16.3638Z" fill="#1A1B1F"/>
</svg>
