<svg width="19" height="19" viewBox="0 0 19 19" fill="none" xmlns="http://www.w3.org/2000/svg">
<path d="M11.751 6.39884L7.93767 10.2211L6.471 8.75439C6.39132 8.66133 6.29326 8.58577 6.18298 8.53244C6.0727 8.4791 5.95259 8.44906 5.83017 8.44435C5.70775 8.43964 5.58568 8.46026 5.47161 8.50497C5.35755 8.54959 5.25395 8.61741 5.16731 8.70399C5.08069 8.79066 5.01291 8.8943 4.96822 9.00835C4.92353 9.12239 4.90291 9.24444 4.90763 9.36693C4.91236 9.48933 4.94235 9.60941 4.9957 9.71973C5.04905 9.82995 5.12462 9.92808 5.21767 10.0077L7.30656 12.1055C7.38962 12.1879 7.48812 12.2531 7.59642 12.2973C7.70469 12.3415 7.82069 12.364 7.93767 12.3633C8.17083 12.3623 8.39429 12.2697 8.55989 12.1055L13.0043 7.66106C13.0876 7.57839 13.1538 7.48008 13.1989 7.3718C13.2441 7.26348 13.2673 7.14729 13.2673 7.02995C13.2673 6.91261 13.2441 6.79642 13.1989 6.6881C13.1538 6.57978 13.0876 6.48147 13.0043 6.39884C12.8378 6.23328 12.6125 6.14036 12.3777 6.14036C12.1428 6.14036 11.9176 6.23328 11.751 6.39884ZM9.33323 0.363281C7.57518 0.363281 5.85659 0.884606 4.39483 1.86133C2.93306 2.83805 1.79375 4.2263 1.12097 5.85054C0.448185 7.47475 0.272159 9.26204 0.615137 10.9863C0.958115 12.7106 1.8047 14.2944 3.04784 15.5376C4.29097 16.7807 5.87482 17.6273 7.59909 17.9703C9.32336 18.3132 11.1106 18.1372 12.7348 17.4644C14.3591 16.7916 15.7474 15.6523 16.7241 14.1906C17.7008 12.7288 18.2221 11.0102 18.2221 9.25217C18.2221 8.08488 17.9922 6.92899 17.5455 5.85054C17.0988 4.77209 16.4441 3.79219 15.6186 2.96677C14.7932 2.14137 13.8133 1.48661 12.7348 1.0399C11.6564 0.593201 10.5005 0.363281 9.33323 0.363281ZM9.33323 16.3633C7.92683 16.3633 6.55193 15.9462 5.38251 15.1649C4.21309 14.3835 3.30164 13.2729 2.76342 11.9735C2.2252 10.6741 2.08437 9.24426 2.35875 7.86488C2.63314 6.48544 3.31041 5.21837 4.30491 4.22386C5.29942 3.22935 6.5665 2.55208 7.94594 2.2777C9.32531 2.00332 10.7552 2.14413 12.0546 2.68236C13.3539 3.22059 14.4645 4.13203 15.2459 5.30145C16.0273 6.47086 16.4443 7.84568 16.4443 9.25217C16.4443 11.1381 15.6952 12.9469 14.3616 14.2805C13.028 15.614 11.2192 16.3633 9.33323 16.3633Z" fill="#1A1B1F"/>
</svg>
