<svg width="19" height="19" viewBox="0 0 19 19" fill="none" xmlns="http://www.w3.org/2000/svg">
<path d="M11.7515 6.39981L7.93816 10.222L6.47149 8.75537C6.39181 8.6623 6.29375 8.58675 6.18346 8.53341C6.07319 8.48008 5.95307 8.45004 5.83066 8.44532C5.70824 8.44061 5.58617 8.46124 5.4721 8.50595C5.35803 8.55057 5.25443 8.61839 5.1678 8.70497C5.08118 8.79164 5.01339 8.89528 4.96871 9.00932C4.92402 9.12337 4.90339 9.24541 4.90812 9.3679C4.91285 9.4903 4.94283 9.61039 4.99618 9.7207C5.04954 9.83092 5.12511 9.92906 5.21816 10.0087L7.30705 12.1065C7.3901 12.1889 7.48861 12.254 7.59691 12.2983C7.70518 12.3425 7.82118 12.365 7.93816 12.3643C8.17131 12.3633 8.39478 12.2707 8.56038 12.1065L13.0048 7.66204C13.0881 7.57937 13.1542 7.48106 13.1994 7.37277C13.2446 7.26445 13.2678 7.14827 13.2678 7.03092C13.2678 6.91358 13.2446 6.7974 13.1994 6.68908C13.1542 6.58076 13.0881 6.48244 13.0048 6.39981C12.8382 6.23426 12.613 6.14133 12.3782 6.14133C12.1433 6.14133 11.9181 6.23426 11.7515 6.39981ZM9.33371 0.364258C7.57567 0.364258 5.85708 0.885582 4.39531 1.8623C2.93355 2.83903 1.79424 4.22728 1.12146 5.85152C0.448674 7.47572 0.272647 9.26301 0.615625 10.9873C0.958603 12.7115 1.80519 14.2954 3.04833 15.5386C4.29146 16.7817 5.8753 17.6283 7.59958 17.9713C9.32385 18.3142 11.1111 18.1382 12.7353 17.4654C14.3596 16.7926 15.7478 15.6533 16.7246 14.1915C17.7013 12.7298 18.2226 11.0112 18.2226 9.25315C18.2226 8.08586 17.9926 6.92996 17.546 5.85152C17.0993 4.77307 16.4446 3.79316 15.6191 2.96775C14.7937 2.14235 13.8138 1.48759 12.7353 1.04088C11.6569 0.594178 10.501 0.364258 9.33371 0.364258ZM9.33371 16.3643C7.92731 16.3643 6.55242 15.9472 5.38299 15.1659C4.21358 14.3844 3.30213 13.2739 2.76391 11.9745C2.22569 10.6751 2.08486 9.24524 2.35924 7.86586C2.63362 6.48642 3.3109 5.21934 4.3054 4.22484C5.29991 3.23033 6.56698 2.55306 7.94642 2.27868C9.3258 2.00429 10.7557 2.14511 12.055 2.68333C13.3544 3.22156 14.465 4.133 15.2464 5.30243C16.0278 6.47184 16.4448 7.84666 16.4448 9.25315C16.4448 11.1391 15.6957 12.9479 14.3621 14.2815C13.0285 15.615 11.2197 16.3643 9.33371 16.3643Z" fill="#1A1B1F"/>
</svg>
