<svg width="19" height="19" viewBox="0 0 19 19" fill="none" xmlns="http://www.w3.org/2000/svg">
<path d="M11.751 6.73282L7.93767 10.555L6.471 9.08838C6.39132 8.99531 6.29326 8.91975 6.18298 8.86642C6.0727 8.81309 5.95259 8.78304 5.83017 8.77833C5.70775 8.77362 5.58568 8.79424 5.47161 8.83895C5.35755 8.88358 5.25395 8.9514 5.16731 9.03798C5.08069 9.12464 5.01291 9.22829 4.96822 9.34233C4.92353 9.45638 4.90291 9.57842 4.90763 9.70091C4.91236 9.82331 4.94235 9.9434 4.9957 10.0537C5.04905 10.1639 5.12462 10.2621 5.21767 10.3417L7.30656 12.4395C7.38962 12.5219 7.48812 12.587 7.59642 12.6313C7.70469 12.6755 7.82069 12.698 7.93767 12.6973C8.17083 12.6963 8.39429 12.6037 8.55989 12.4395L13.0043 7.99504C13.0876 7.91238 13.1538 7.81407 13.1989 7.70578C13.2441 7.59746 13.2673 7.48127 13.2673 7.36393C13.2673 7.24659 13.2441 7.1304 13.1989 7.02208C13.1538 6.91376 13.0876 6.81545 13.0043 6.73282C12.8378 6.56727 12.6125 6.47434 12.3777 6.47434C12.1428 6.47434 11.9176 6.56727 11.751 6.73282ZM9.33323 0.697266C7.57518 0.697266 5.85659 1.21859 4.39483 2.19531C2.93306 3.17204 1.79375 4.56029 1.12097 6.18453C0.448185 7.80873 0.272159 9.59602 0.615137 11.3203C0.958115 13.0446 1.8047 14.6284 3.04784 15.8716C4.29097 17.1147 5.87482 17.9613 7.59909 18.3043C9.32336 18.6472 11.1106 18.4712 12.7348 17.7984C14.3591 17.1256 15.7474 15.9863 16.7241 14.5246C17.7008 13.0628 18.2221 11.3442 18.2221 9.58615C18.2221 8.41887 17.9922 7.26297 17.5455 6.18453C17.0988 5.10607 16.4441 4.12617 15.6186 3.30076C14.7932 2.47535 13.8133 1.8206 12.7348 1.37389C11.6564 0.927186 10.5005 0.697266 9.33323 0.697266ZM9.33323 16.6973C7.92683 16.6973 6.55193 16.2802 5.38251 15.4989C4.21309 14.7174 3.30164 13.6069 2.76342 12.3075C2.2252 11.0081 2.08437 9.57824 2.35875 8.19887C2.63314 6.81943 3.31041 5.55235 4.30491 4.55784C5.29942 3.56334 6.5665 2.88607 7.94594 2.61168C9.32531 2.3373 10.7552 2.47812 12.0546 3.01634C13.3539 3.55457 14.4645 4.46601 15.2459 5.63543C16.0273 6.80485 16.4443 8.17967 16.4443 9.58615C16.4443 11.4721 15.6952 13.2809 14.3616 14.6145C13.028 15.948 11.2192 16.6973 9.33323 16.6973Z" fill="#1A1B1F"/>
</svg>
